# xmcd
#
# Track frame offsets:
#	150
#	16080
#	32887
#	48220
#
# Disc length: 865 seconds
#
# Revision: 6
# Processed by: cddbd v1.5.2PL0 Copyright (c) Steve Scherf et al.
# Submitted via: VUPlayer 2.49
#
DISCID=24035f04
DTITLE=Louchie Lou and Michie One - Shout [CDS]
DYEAR=1993
DGENRE=Dance
TTITLE0=Shout (Radio Edit)
TTITLE1=Shout (Dub 1)
TTITLE2=Shout (Dub 2)
TTITLE3=Shout (Accapella)
EXTD=
EXTT0=
EXTT1=
EXTT2=
EXTT3=
PLAYORDER=
